<svg
  xmlns="http://www.w3.org/2000/svg"
  viewBox="0 0 480 480"
  class="icon"
  aria-hidden="true"
>
  <path
    fill="currentColor"
    d="M240 273.915c28.673 0 52-23.327 52-52v-68c0-28.673-23.327-52-52-52s-52 23.327-52 52v68c0 28.673 23.327 52 52 52"
  />
  <path
    fill="currentColor"
    d="M318.872 218.218a8 8 0 0 0-8 8c0 38.592-31.011 70.057-69.421 70.835a7.7 7.7 0 0 0-2.903 0c-38.409-.778-69.421-32.243-69.421-70.835a8 8 0 0 0-16 0c0 45.204 34.707 82.448 78.873 86.5v25.197h-14a8 8 0 0 0 0 16h44a8 8 0 0 0 0-16h-14v-25.197c44.165-4.052 78.872-41.296 78.872-86.5a8 8 0 0 0-8-8M158.756 176.999a83 83 0 0 1-.48-1.844c-1.068-4.287-5.413-6.901-9.695-5.83a8 8 0 0 0-5.831 9.695q.273 1.093.568 2.182a8 8 0 0 0 9.821 5.617 8 8 0 0 0 5.617-9.82M169.136 83.897c-15.084 15.085-24.809 34.163-28.123 55.172a8 8 0 0 0 15.805 2.492c2.783-17.646 10.955-33.674 23.632-46.351 32.837-32.836 86.265-32.836 119.1 0 21.322 21.321 29.635 52.659 21.694 81.784-1.392 5.104 2.464 10.106 7.724 10.106a8.005 8.005 0 0 0 7.714-5.897c9.445-34.65-.447-71.937-25.817-97.308-39.075-39.073-102.654-39.074-141.729.002"
  />
  <path
    fill="currentColor"
    d="M142.149 56.604c45.208-45.209 114.906-53.67 169.504-20.577 3.777 2.293 8.698 1.084 10.987-2.694a8 8 0 0 0-2.694-10.987C290.924 4.752 256.268-2.797 222.361 1.078 150.898 9.253 96.687 64.932 87.132 132.829c-4.542 32.275 1.377 65.797 16.667 94.393a8 8 0 0 0 7.062 4.229c5.974 0 9.914-6.414 7.048-11.774-28.932-54.109-19.191-119.642 24.24-163.073M349.166 45.29a8 8 0 0 0-11.314 11.314c43.403 43.403 53.161 108.907 24.281 162.999-2.866 5.37 1.092 11.77 7.051 11.77a8 8 0 0 0 7.064-4.234C406.915 169.7 399.15 95.276 349.166 45.29M432 383.915H48c-26.47 0-48 21.53-48 48s21.53 48 48 48h384c26.47 0 48-21.53 48-48s-21.53-48-48-48M80.885 438.908l-13 7.223c-5.308 2.95-11.885-.892-11.885-6.994v-14.445c0-6.09 6.557-9.953 11.885-6.993l13 7.223c5.476 3.042 5.482 10.94 0 13.986m276.761 1.007H123a8 8 0 0 1 0-16h234.646a8 8 0 0 1 0 16m42.354 0h-6.226a8 8 0 0 1 0-16H400a8 8 0 0 1 0 16"
  />
</svg>
