<svg
  xmlns="http://www.w3.org/2000/svg"
  viewBox="0 0 24 24"
  class="icon"
  aria-hidden="true"
>
  <path
    fill="currentColor"
    fill-rule="evenodd"
    clip-rule="evenodd"
    d="M11.905 5.164c-.608.466-1.38 1.253-2.487 2.383-.588.6-1.116 1.038-1.759 1.303-.64.265-1.321.329-2.153.329-.718 0-1.198 0-1.564.039-.353.036-.515.1-.623.174-.29.198-.445.498-.518.96-.06.376-.054.763-.047 1.199a29 29 0 0 1 0 .899c-.007.435-.012.822.047 1.198.073.462.228.762.518.96.108.073.27.138.623.174.366.038.846.04 1.564.04.832 0 1.513.063 2.153.328.643.265 1.17.703 1.76 1.303 1.106 1.13 1.878 1.917 2.486 2.383.634.487.823.419.877.396.062-.026.248-.129.36-.934.106-.771.108-1.887.108-3.484V9.187c0-1.598-.002-2.714-.109-3.485-.111-.805-.297-.908-.359-.934-.054-.023-.244-.09-.877.396m-.914-1.19c.687-.527 1.504-.956 2.376-.587.863.365 1.14 1.244 1.26 2.11.123.886.123 2.107.123 3.625v5.756c0 1.518 0 2.739-.123 3.626-.12.865-.397 1.744-1.26 2.11-.872.368-1.689-.06-2.376-.588-.702-.54-1.549-1.404-2.599-2.476l-.046-.047c-.54-.55-.897-.817-1.26-.967-.364-.15-.807-.215-1.58-.215h-.04c-.668 0-1.227 0-1.68-.047-.474-.049-.915-.156-1.312-.427-.756-.516-1.045-1.27-1.155-1.965-.081-.517-.072-1.085-.064-1.543L1.258 12l-.003-.339c-.008-.458-.017-1.026.064-1.543.11-.694.4-1.45 1.155-1.965.397-.27.838-.378 1.313-.427.452-.047 1.011-.047 1.68-.047h.039c.773 0 1.216-.064 1.58-.215.363-.15.72-.416 1.26-.967l.046-.047c1.05-1.072 1.897-1.936 2.6-2.476M17.47 9.47a.75.75 0 0 1 1.06 0L20 10.94l1.47-1.47a.75.75 0 1 1 1.06 1.06L21.06 12l1.47 1.47a.75.75 0 1 1-1.06 1.06L20 13.06l-1.47 1.47a.75.75 0 1 1-1.06-1.06L18.94 12l-1.47-1.47a.75.75 0 0 1 0-1.06"
  />
</svg>
